<?xml version="1.0" encoding="utf-8"?>
<!-- Generator: Adobe Illustrator 19.0.0, SVG Export Plug-In . SVG Version: 6.00 Build 0)  -->
<svg version="1.1" id="图层_1" xmlns="http://www.w3.org/2000/svg" xmlns:xlink="http://www.w3.org/1999/xlink" x="0px" y="0px"
	 viewBox="0 0 841.9 595.3" style="enable-background:new 0 0 841.9 595.3;" xml:space="preserve">
<style type="text/css">
	.st0{fill:none;stroke:#000000;stroke-miterlimit:10;}
	.st1{opacity:0.2;}
	.st2{fill:#FFFFFF;stroke:#000000;stroke-miterlimit:10;}
</style>
<circle id="XMLID_918_" class="st0" cx="420.5" cy="297.1" r="56.2"/>
<g id="XMLID_922_" class="st1">
	<path id="XMLID_933_" class="st2" d="M388.7,272.1l16.7,16.7c-2.8,5.1-2.8,11.4,0,16.5l-16.7,16.7
		C377.2,307.4,377.2,286.7,388.7,272.1z"/>
	<path id="XMLID_929_" class="st2" d="M445.5,265.3L428.8,282c-5.1-2.8-11.4-2.8-16.5,0l-16.7-16.7
		C410.2,253.7,430.9,253.8,445.5,265.3z"/>
	<path id="XMLID_930_" class="st2" d="M452.3,272.1c11.5,14.6,11.5,35.3,0,50l-16.7-16.7c2.8-5.1,2.8-11.4,0-16.5L452.3,272.1z"/>
	<path id="XMLID_931_" class="st2" d="M428.8,312.1l16.7,16.7c-14.6,11.5-35.3,11.5-50,0l16.7-16.7C417.4,315,423.7,315,428.8,312.1
		z"/>
	<animateTransform attributeType="xml" attributeName="transform" type="rotate" from="0 420.5 297.1" to="360 420.5 297.1" dur="4s" repeatCount="indefinite"/>

</g>
</svg>
